<svg id="visual" viewBox="0 0 1920 1080" width="1920" height="1080" xmlns="http://www.w3.org/2000/svg" xmlns:xlink="http://www.w3.org/1999/xlink" version="1.1"><rect x="0" y="0" width="1920" height="1080" fill="#001220"></rect><defs><linearGradient id="grad1_0" x1="43.8%" y1="100%" x2="100%" y2="0%"><stop offset="14.444444444444446%" stop-color="#fbae3c" stop-opacity="1"></stop><stop offset="85.55555555555554%" stop-color="#fbae3c" stop-opacity="1"></stop></linearGradient></defs><defs><linearGradient id="grad1_1" x1="43.8%" y1="100%" x2="100%" y2="0%"><stop offset="14.444444444444446%" stop-color="#fbae3c" stop-opacity="1"></stop><stop offset="85.55555555555554%" stop-color="#f48350" stop-opacity="1"></stop></linearGradient></defs><defs><linearGradient id="grad1_2" x1="43.8%" y1="100%" x2="100%" y2="0%"><stop offset="14.444444444444446%" stop-color="#d96162" stop-opacity="1"></stop><stop offset="85.55555555555554%" stop-color="#f48350" stop-opacity="1"></stop></linearGradient></defs><defs><linearGradient id="grad1_3" x1="43.8%" y1="100%" x2="100%" y2="0%"><stop offset="14.444444444444446%" stop-color="#d96162" stop-opacity="1"></stop><stop offset="85.55555555555554%" stop-color="#af4b6d" stop-opacity="1"></stop></linearGradient></defs><defs><linearGradient id="grad1_4" x1="43.8%" y1="100%" x2="100%" y2="0%"><stop offset="14.444444444444446%" stop-color="#7c3e6b" stop-opacity="1"></stop><stop offset="85.55555555555554%" stop-color="#af4b6d" stop-opacity="1"></stop></linearGradient></defs><defs><linearGradient id="grad1_5" x1="43.8%" y1="100%" x2="100%" y2="0%"><stop offset="14.444444444444446%" stop-color="#7c3e6b" stop-opacity="1"></stop><stop offset="85.55555555555554%" stop-color="#49335c" stop-opacity="1"></stop></linearGradient></defs><defs><linearGradient id="grad1_6" x1="43.8%" y1="100%" x2="100%" y2="0%"><stop offset="14.444444444444446%" stop-color="#1d2540" stop-opacity="1"></stop><stop offset="85.55555555555554%" stop-color="#49335c" stop-opacity="1"></stop></linearGradient></defs><defs><linearGradient id="grad1_7" x1="43.8%" y1="100%" x2="100%" y2="0%"><stop offset="14.444444444444446%" stop-color="#1d2540" stop-opacity="1"></stop><stop offset="85.55555555555554%" stop-color="#001220" stop-opacity="1"></stop></linearGradient></defs><defs><linearGradient id="grad2_0" x1="0%" y1="100%" x2="56.3%" y2="0%"><stop offset="14.444444444444446%" stop-color="#fbae3c" stop-opacity="1"></stop><stop offset="85.55555555555554%" stop-color="#fbae3c" stop-opacity="1"></stop></linearGradient></defs><defs><linearGradient id="grad2_1" x1="0%" y1="100%" x2="56.3%" y2="0%"><stop offset="14.444444444444446%" stop-color="#f48350" stop-opacity="1"></stop><stop offset="85.55555555555554%" stop-color="#fbae3c" stop-opacity="1"></stop></linearGradient></defs><defs><linearGradient id="grad2_2" x1="0%" y1="100%" x2="56.3%" y2="0%"><stop offset="14.444444444444446%" stop-color="#f48350" stop-opacity="1"></stop><stop offset="85.55555555555554%" stop-color="#d96162" stop-opacity="1"></stop></linearGradient></defs><defs><linearGradient id="grad2_3" x1="0%" y1="100%" x2="56.3%" y2="0%"><stop offset="14.444444444444446%" stop-color="#af4b6d" stop-opacity="1"></stop><stop offset="85.55555555555554%" stop-color="#d96162" stop-opacity="1"></stop></linearGradient></defs><defs><linearGradient id="grad2_4" x1="0%" y1="100%" x2="56.3%" y2="0%"><stop offset="14.444444444444446%" stop-color="#af4b6d" stop-opacity="1"></stop><stop offset="85.55555555555554%" stop-color="#7c3e6b" stop-opacity="1"></stop></linearGradient></defs><defs><linearGradient id="grad2_5" x1="0%" y1="100%" x2="56.3%" y2="0%"><stop offset="14.444444444444446%" stop-color="#49335c" stop-opacity="1"></stop><stop offset="85.55555555555554%" stop-color="#7c3e6b" stop-opacity="1"></stop></linearGradient></defs><defs><linearGradient id="grad2_6" x1="0%" y1="100%" x2="56.3%" y2="0%"><stop offset="14.444444444444446%" stop-color="#49335c" stop-opacity="1"></stop><stop offset="85.55555555555554%" stop-color="#1d2540" stop-opacity="1"></stop></linearGradient></defs><defs><linearGradient id="grad2_7" x1="0%" y1="100%" x2="56.3%" y2="0%"><stop offset="14.444444444444446%" stop-color="#001220" stop-opacity="1"></stop><stop offset="85.55555555555554%" stop-color="#1d2540" stop-opacity="1"></stop></linearGradient></defs><g transform="translate(1920, 1080)"><path d="M-1080 0C-1069 -54.9 -1058 -109.8 -1051.9 -166.6C-1045.7 -223.4 -1044.4 -282.2 -1020.5 -331.6C-996.5 -380.9 -949.9 -420.8 -924.9 -471.2C-899.8 -521.7 -896.2 -582.7 -873.7 -634.8C-851.3 -686.9 -809.9 -730 -761.6 -761.6C-713.2 -793.1 -658 -813 -607.8 -836.5C-557.5 -860 -512.3 -887.2 -466.2 -915.1C-420.2 -942.9 -373.4 -971.6 -323.8 -996.7C-274.3 -1021.9 -221.8 -1043.5 -167.4 -1056.8C-112.9 -1070.1 -56.5 -1075.1 0 -1080L0 0Z" fill="#0c1c30"></path><path d="M-945 0C-935.4 -48 -925.8 -96 -920.4 -145.8C-915 -195.5 -913.9 -247 -892.9 -290.1C-872 -333.3 -831.2 -368.2 -809.3 -412.3C-787.3 -456.5 -784.2 -509.9 -764.5 -555.5C-744.9 -601 -708.6 -638.8 -666.4 -666.4C-624.1 -693.9 -575.8 -711.4 -531.8 -732C-487.8 -752.5 -448.2 -776.3 -408 -800.7C-367.7 -825.1 -326.8 -850.1 -283.4 -872.1C-240 -894.1 -194.1 -913.1 -146.5 -924.7C-98.8 -936.4 -49.4 -940.7 0 -945L0 0Z" fill="#312c4f"></path><path d="M-810 0C-801.8 -41.2 -793.5 -82.3 -788.9 -125C-784.3 -167.6 -783.3 -211.7 -765.4 -248.7C-747.4 -285.7 -712.5 -315.6 -693.6 -353.4C-674.8 -391.3 -672.2 -437 -655.3 -476.1C-638.4 -515.2 -607.4 -547.5 -571.2 -571.2C-534.9 -594.8 -493.5 -609.7 -455.8 -627.4C-418.1 -645 -384.2 -665.4 -349.7 -686.3C-315.2 -707.2 -280.1 -728.7 -242.9 -747.5C-205.7 -766.4 -166.4 -782.6 -125.5 -792.6C-84.7 -802.6 -42.4 -806.3 0 -810L0 0Z" fill="#623965"></path><path d="M-675 0C-668.1 -34.3 -661.3 -68.6 -657.4 -104.1C-653.6 -139.7 -652.8 -176.4 -637.8 -207.2C-622.8 -238.1 -593.7 -263 -578 -294.5C-562.4 -326.1 -560.1 -364.2 -546.1 -396.8C-532 -429.3 -506.2 -456.3 -476 -476C-445.8 -495.7 -411.3 -508.1 -379.9 -522.8C-348.5 -537.5 -320.2 -554.5 -291.4 -571.9C-262.6 -589.3 -233.4 -607.2 -202.4 -622.9C-171.4 -638.7 -138.6 -652.2 -104.6 -660.5C-70.6 -668.8 -35.3 -671.9 0 -675L0 0Z" fill="#96446e"></path><path d="M-540 0C-534.5 -27.4 -529 -54.9 -525.9 -83.3C-522.9 -111.7 -522.2 -141.1 -510.2 -165.8C-498.3 -190.5 -475 -210.4 -462.4 -235.6C-449.9 -260.8 -448.1 -291.4 -436.9 -317.4C-425.6 -343.4 -404.9 -365 -380.8 -380.8C-356.6 -396.5 -329 -406.5 -303.9 -418.3C-278.8 -430 -256.1 -443.6 -233.1 -457.5C-210.1 -471.5 -186.7 -485.8 -161.9 -498.4C-137.1 -510.9 -110.9 -521.8 -83.7 -528.4C-56.5 -535.1 -28.2 -537.5 0 -540L0 0Z" fill="#c55469"></path><path d="M-405 0C-400.9 -20.6 -396.8 -41.2 -394.5 -62.5C-392.2 -83.8 -391.7 -105.8 -382.7 -124.3C-373.7 -142.8 -356.2 -157.8 -346.8 -176.7C-337.4 -195.6 -336.1 -218.5 -327.7 -238.1C-319.2 -257.6 -303.7 -273.8 -285.6 -285.6C-267.5 -297.4 -246.8 -304.9 -227.9 -313.7C-209.1 -322.5 -192.1 -332.7 -174.8 -343.1C-157.6 -353.6 -140 -364.3 -121.4 -373.8C-102.8 -383.2 -83.2 -391.3 -62.8 -396.3C-42.4 -401.3 -21.2 -403.1 0 -405L0 0Z" fill="#e9705a"></path><path d="M-270 0C-267.3 -13.7 -264.5 -27.4 -263 -41.7C-261.4 -55.9 -261.1 -70.6 -255.1 -82.9C-249.1 -95.2 -237.5 -105.2 -231.2 -117.8C-224.9 -130.4 -224.1 -145.7 -218.4 -158.7C-212.8 -171.7 -202.5 -182.5 -190.4 -190.4C-178.3 -198.3 -164.5 -203.2 -151.9 -209.1C-139.4 -215 -128.1 -221.8 -116.6 -228.8C-105.1 -235.7 -93.4 -242.9 -81 -249.2C-68.6 -255.5 -55.5 -260.9 -41.8 -264.2C-28.2 -267.5 -14.1 -268.8 0 -270L0 0Z" fill="#fa9845"></path><path d="M-135 0C-133.6 -6.9 -132.3 -13.7 -131.5 -20.8C-130.7 -27.9 -130.6 -35.3 -127.6 -41.4C-124.6 -47.6 -118.7 -52.6 -115.6 -58.9C-112.5 -65.2 -112 -72.8 -109.2 -79.4C-106.4 -85.9 -101.2 -91.3 -95.2 -95.2C-89.2 -99.1 -82.3 -101.6 -76 -104.6C-69.7 -107.5 -64 -110.9 -58.3 -114.4C-52.5 -117.9 -46.7 -121.4 -40.5 -124.6C-34.3 -127.7 -27.7 -130.4 -20.9 -132.1C-14.1 -133.8 -7.1 -134.4 0 -135L0 0Z" fill="#fbae3c"></path></g><g transform="translate(0, 0)"><path d="M1080 0C1057.9 54.7 1035.8 109.5 1017.3 161.1C998.9 212.8 984.1 261.4 981.5 318.9C978.8 376.4 988.3 442.9 962.3 490.3C936.3 537.7 874.9 566.1 833.3 605.4C791.6 644.7 769.7 694.9 736.8 736.8C703.9 778.7 659.9 812.5 617.8 850.3C575.7 888.1 535.4 930 485.3 952.5C435.2 974.9 375.2 977.9 319.8 984.3C264.4 990.8 213.7 1000.8 161.1 1017.3C108.6 1033.8 54.3 1056.9 0 1080L0 0Z" fill="#0c1c30"></path><path d="M945 0C925.6 47.9 906.3 95.8 890.2 141C874 186.2 861.1 228.7 858.8 279C856.5 329.4 864.7 387.5 842 429C819.3 470.5 765.6 495.4 729.1 529.7C692.7 564.1 673.5 608 644.7 644.7C615.9 681.4 577.4 710.9 540.5 744C503.7 777.1 468.5 813.8 424.7 833.4C380.8 853.1 328.3 855.6 279.9 861.3C231.4 867 187 875.7 141 890.2C95 904.6 47.5 924.8 0 945L0 0Z" fill="#312c4f"></path><path d="M810 0C793.4 41 776.8 82.1 763 120.8C749.2 159.6 738.1 196 736.1 239.2C734.1 282.3 741.2 332.2 721.7 367.7C702.2 403.3 656.2 424.6 625 454.1C593.7 483.5 577.3 521.2 552.6 552.6C527.9 584.1 494.9 609.3 463.3 637.7C431.7 666.1 401.6 697.5 364 714.4C326.4 731.2 281.4 733.4 239.9 738.3C198.3 743.1 160.2 750.6 120.8 763C81.4 775.4 40.7 792.7 0 810L0 0Z" fill="#623965"></path><path d="M675 0C661.2 34.2 647.3 68.4 635.8 100.7C624.3 133 615.1 163.4 613.4 199.3C611.8 235.3 617.7 276.8 601.4 306.4C585.2 336.1 546.8 353.8 520.8 378.4C494.8 402.9 481.1 434.3 460.5 460.5C439.9 486.7 412.4 507.8 386.1 531.4C359.8 555.1 334.6 581.3 303.3 595.3C272 609.3 234.5 611.2 199.9 615.2C165.3 619.3 133.5 625.5 100.7 635.8C67.9 646.2 33.9 660.6 0 675L0 0Z" fill="#96446e"></path><path d="M540 0C528.9 27.4 517.9 54.7 508.7 80.6C499.4 106.4 492.1 130.7 490.7 159.5C489.4 188.2 494.1 221.4 481.1 245.2C468.2 268.9 437.5 283.1 416.6 302.7C395.8 322.4 384.9 347.4 368.4 368.4C351.9 389.4 329.9 406.2 308.9 425.1C287.8 444.1 267.7 465 242.7 476.2C217.6 487.5 187.6 488.9 159.9 492.2C132.2 495.4 106.8 500.4 80.6 508.7C54.3 516.9 27.1 528.5 0 540L0 0Z" fill="#c55469"></path><path d="M405 0C396.7 20.5 388.4 41 381.5 60.4C374.6 79.8 369.1 98 368.1 119.6C367.1 141.2 370.6 166.1 360.9 183.9C351.1 201.7 328.1 212.3 312.5 227C296.9 241.8 288.7 260.6 276.3 276.3C263.9 292 247.5 304.7 231.7 318.9C215.9 333 200.8 348.8 182 357.2C163.2 365.6 140.7 366.7 119.9 369.1C99.2 371.6 80.1 375.3 60.4 381.5C40.7 387.7 20.4 396.3 0 405L0 0Z" fill="#e9705a"></path><path d="M270 0C264.5 13.7 258.9 27.4 254.3 40.3C249.7 53.2 246 65.3 245.4 79.7C244.7 94.1 247.1 110.7 240.6 122.6C234.1 134.4 218.7 141.5 208.3 151.4C197.9 161.2 192.4 173.7 184.2 184.2C176 194.7 165 203.1 154.4 212.6C143.9 222 133.9 232.5 121.3 238.1C108.8 243.7 93.8 244.5 80 246.1C66.1 247.7 53.4 250.2 40.3 254.3C27.1 258.5 13.6 264.2 0 270L0 0Z" fill="#fa9845"></path><path d="M135 0C132.2 6.8 129.5 13.7 127.2 20.1C124.9 26.6 123 32.7 122.7 39.9C122.4 47.1 123.5 55.4 120.3 61.3C117 67.2 109.4 70.8 104.2 75.7C99 80.6 96.2 86.9 92.1 92.1C88 97.3 82.5 101.6 77.2 106.3C72 111 66.9 116.3 60.7 119.1C54.4 121.9 46.9 122.2 40 123C33.1 123.9 26.7 125.1 20.1 127.2C13.6 129.2 6.8 132.1 0 135L0 0Z" fill="#fbae3c"></path></g></svg>