<?xml version="1.0" encoding="utf-8"?>
<!-- Generator: Adobe Illustrator 19.2.1, SVG Export Plug-In . SVG Version: 6.00 Build 0)  -->
<svg version="1.1" id="layer" xmlns="http://www.w3.org/2000/svg" xmlns:xlink="http://www.w3.org/1999/xlink" x="0px" y="0px"
	 viewBox="0 0 652 652" style="enable-background:new 0 0 652 652;" xml:space="preserve">
<style type="text/css">
	.st0{fill:#0077D4;}
</style>
<path class="st0" d="M148.9,345.1v-31.3c0,0,0-0.8-0.9-0.8c-0.8,0-0.8,0.8-0.8,0.8v31.3c0,0,0,0.7,0.9,0.7
	C148.9,345.8,148.9,345.1,148.9,345.1z"/>
<path class="st0" d="M26.6,390.3h600V261.7h-600V390.3z M80,345.8c0.8,0,0.8-0.6,0.8-0.6v-34H83v34c0,0,0.2,2.6-2.8,2.6
	c-3,0-3-2.6-3-2.6v-34h2.2V345C79.4,345,79.2,345.8,80,345.8z M155.8,353.1H72.3v-3.5h83.5V353.1z M90.9,347.7v-36.6h1.7l2.2,19.5
	v-19.5h1.8v36.6h-1.8l-2.2-22v22H90.9z M109.7,327.2v2h-2.4v16.5h3.1v1.9h-5.6v-36.6h4.8v1.8h-2.4v14.3H109.7z M120.5,345.7
	c0.6,0,0.6-0.7,0.6-0.7v-8.4c0-3.5-3.4-11.3-3.4-15.9v-7c0,0,0-2.5,2.9-2.6c2.9-0.1,2.8,2.6,2.8,2.6v8.2H121v-8.2c0,0,0-0.8-0.6-0.8
	c-0.6,0-0.5,0.8-0.5,0.8v8.2c0,2.7,3.4,10.9,3.4,15.2c0,1.8,0,7.9,0,7.9s0,2.6-2.9,2.6c-2.9,0-2.8-2.6-2.8-2.6v-9.2h2.3v9.2
	C119.9,345.1,119.9,345.7,120.5,345.7z M134.2,313c-0.8,0-0.8,0.8-0.8,0.8v31.3c0,0,0.1,0.7,0.8,0.7c0.7,0,0.7-0.7,0.7-0.7v-9.2h2.2
	v9.2c0,0,0,2.6-2.9,2.6c-2.9,0-2.8-2.6-2.8-2.6v-31.3c0,0,0-2.6,2.8-2.6c2.8,0,2.9,2.6,2.9,2.6v8.2h-2.2v-8.2
	C134.9,313.7,134.9,313,134.2,313z M145,345.1v-31.3c0,0,0-2.6,3.1-2.6c3.1,0,2.9,2.6,2.9,2.6v31.3c0,0,0,2.6-3.1,2.6
	C145,347.7,145,345.1,145,345.1z M72.3,305.5h83.5v3.5H72.3V305.5z M79,303.2l35-10.7l34.5,10.7h-10.1l-24.3-7.4l-24.9,7.4H79z
	 M72.3,299.5l41.7-12.9l41.8,12.9v3.8l-42-12.7l-41.5,12.7V299.5z M67.6,355.5h92.8v3.5H67.6V355.5z M164.9,365H63.2v-3.5h101.7V365
	z M623,386.7H201.4V265.3H623V386.7z"/>
<path class="st0" d="M527.4,339.6c-2.7,2.6-6.2,4.1-10,4.1c-7.8,0-14.1-6.3-14.1-14.1c0-7.8,6.3-14.1,14.1-14.1
	c3.7,0,7.2,1.4,9.9,4.1l0.4,0.4l6.4-13.7l-0.2-0.2c-4.9-3.4-10.6-5.3-16.5-5.3c-15.8,0-28.6,12.8-28.6,28.6
	c0,15.8,12.8,28.6,28.6,28.6c5.9,0,11.6-1.8,16.5-5.2l0.2-0.2l-6.3-13.4L527.4,339.6z M568,343.8c-7.8,0-14.1-6.3-14.1-14.1
	s6.3-14.1,14.1-14.1s14.1,6.3,14.1,14.1S575.8,343.8,568,343.8z M567.9,301c-15.8,0-28.6,12.8-28.6,28.6c0,15.8,12.8,28.6,28.6,28.6
	c15.8,0,28.6-12.8,28.6-28.6C596.5,313.8,583.7,301,567.9,301z M255.3,302.7v29.5c0,2.4,0.2,6.1,3,8.7c1.2,1.1,3.4,2.5,7.2,2.5
	c3.2,0,5.8-1.1,7.3-2.5c2.5-2.4,2.9-6,2.9-8.7v-29.5H293v31.2c0,6.1-0.6,11.9-6,17.2c-6.1,6-15.1,7-21.5,7c-6.6,0-15.5-1-21.6-7
	c-4.9-4.8-5.9-10.2-5.9-16.1v-32.3H255.3z M306.5,302.7h17.3v6.4c5.3-6.7,11.5-7.8,16.6-7.8c4.7,0,10.8,0.8,15.4,5.4
	c5,5.1,5.4,11.4,5.4,15.7v33.9h-17.3v-27.5c0-3.5-0.1-7.9-2.9-10.7c-1.3-1.3-3.5-2.4-6.6-2.4c-3.6,0-5.9,1.4-7.2,2.9
	c-2.9,2.9-3.4,6.7-3.4,10.2v27.5h-17.3V302.7z M413.5,322.2c-0.1-0.5-1-3.8-3.5-6.3c-1.9-1.8-4.7-3-8.2-3c-4.5,0-7.1,1.8-8.8,3.5
	c-1.3,1.4-2.5,3.4-3,5.8H413.5z M429.5,332.5h-40c0,2.9,1.1,6.7,3.2,9.1c2.6,2.9,6.3,3.4,8.9,3.4c2.5,0,5.2-0.5,7-1.6
	c0.2-0.1,2.3-1.4,3.7-4.4l16.3,1.7c-2.4,7.6-7.2,11.5-10.3,13.4c-5.2,3.1-10.9,4-16.9,4c-8,0-15.1-1.4-21.4-7.7
	c-4.7-4.7-8.1-11.8-8.1-20.7c0-7.7,2.8-15.6,8.2-21.1c6.5-6.5,14.5-7.7,20.5-7.7c6,0,14.7,1.1,21.3,8.1c6.4,6.7,7.6,15.1,7.6,21.7
	L429.5,332.5L429.5,332.5z M473.1,316.4c-2.6-1.6-6.1-3-9.5-3c-1.8,0-3.8,0.5-4.9,1.6c-0.6,0.6-1.1,1.6-1.1,2.4
	c0,1.2,0.8,1.9,1.7,2.4c1.2,0.7,3,1.1,5.2,1.8l4.6,1.4c3,1,6.1,2.2,8.9,4.7c3.1,2.9,4.2,6.1,4.2,10.2c0,7.1-3.1,11.6-5.5,14.1
	c-5.3,5.3-11.8,6.1-17.4,6.1c-7.2,0-15-1.6-22-7.7l7.3-11.6c1.7,1.4,4.1,3.1,5.9,4c2.4,1.2,4.9,1.7,7.2,1.7c1.1,0,3.8,0,5.4-1.2
	c1.1-0.8,1.8-2.2,1.8-3.5c0-1-0.4-2.2-1.9-3.1c-1.2-0.7-2.8-1.2-5.3-1.9l-4.3-1.3c-3.1-1-6.4-2.6-8.7-4.9c-2.5-2.6-3.8-5.7-3.8-9.7
	c0-5.2,2-9.5,5.2-12.4c4.8-4.4,11.3-5.4,16.2-5.4c7.9,0,13.4,2,17.8,4.6L473.1,316.4z"/>
</svg>
